# Blender 4.4.1
# www.blender.org
mtllib title.mtl
o 立方体
v 12.705400 4.100134 -1.000000
v 12.705400 6.100134 -1.000000
v 12.705400 4.100134 1.000000
v 12.705400 6.100134 1.000000
v 2.100274 4.100134 -1.000000
v 2.100274 6.100134 -1.000000
v 2.100274 4.100134 1.000000
v 2.100274 6.100134 1.000000
v 4.221299 4.100134 1.000000
v 6.342324 4.100134 1.000000
v 8.463350 4.100134 1.000000
v 10.584375 4.100134 1.000000
v 10.584375 6.100134 1.000000
v 8.463350 6.100134 1.000000
v 6.342325 6.100134 1.000000
v 4.221299 6.100134 1.000000
v 10.584375 4.100134 -1.000000
v 8.463350 4.100134 -1.000000
v 6.342325 4.100134 -1.000000
v 4.221299 4.100134 -1.000000
v 4.221299 6.100134 -1.000000
v 6.342324 6.100134 -1.000000
v 8.463350 6.100134 -1.000000
v 10.584375 6.100134 -1.000000
v 6.342324 -8.835068 1.000000
v 8.463350 -8.835068 1.000000
v 8.463350 -8.835068 -1.000000
v 6.342325 -8.835068 -1.000000
vn 1.0000 -0.0000 -0.0000
vn -0.0000 -0.0000 1.0000
vn -1.0000 -0.0000 -0.0000
vn -0.0000 -0.0000 -1.0000
vn -0.0000 -1.0000 -0.0000
vn -0.0000 1.0000 -0.0000
vt 0.375000 0.000000
vt 0.625000 0.000000
vt 0.625000 0.250000
vt 0.375000 0.250000
vt 0.375000 0.450000
vt 0.625000 0.450000
vt 0.625000 0.500000
vt 0.375000 0.500000
vt 0.625000 0.750000
vt 0.375000 0.750000
vt 0.375000 0.950000
vt 0.625000 0.950000
vt 0.625000 1.000000
vt 0.375000 1.000000
vt 0.325000 0.500000
vt 0.325000 0.750000
vt 0.825000 0.500000
vt 0.875000 0.500000
vt 0.875000 0.750000
vt 0.825000 0.750000
vt 0.675000 0.500000
vt 0.675000 0.750000
vt 0.725000 0.500000
vt 0.725000 0.750000
vt 0.775000 0.500000
vt 0.775000 0.750000
vt 0.125000 0.500000
vt 0.175000 0.500000
vt 0.175000 0.750000
vt 0.125000 0.750000
vt 0.225000 0.500000
vt 0.225000 0.750000
vt 0.275000 0.500000
vt 0.275000 0.750000
vt 0.625000 0.800000
vt 0.375000 0.800000
vt 0.625000 0.850000
vt 0.375000 0.850000
vt 0.625000 0.900000
vt 0.375000 0.900000
vt 0.625000 0.300000
vt 0.375000 0.300000
vt 0.625000 0.350000
vt 0.375000 0.350000
vt 0.625000 0.400000
vt 0.375000 0.400000
s 0
f 1/1/1 2/2/1 4/3/1 3/4/1
f 9/5/2 16/6/2 8/7/2 7/8/2
f 7/8/3 8/7/3 6/9/3 5/10/3
f 17/11/4 24/12/4 2/13/4 1/14/4
f 9/15/5 7/8/5 5/10/5 20/16/5
f 13/17/6 4/18/6 2/19/6 24/20/6
f 8/7/6 16/21/6 21/22/6 6/9/6
f 16/21/6 15/23/6 22/24/6 21/22/6
f 15/23/6 14/25/6 23/26/6 22/24/6
f 14/25/6 13/17/6 24/20/6 23/26/6
f 3/27/5 12/28/5 17/29/5 1/30/5
f 12/28/5 11/31/5 18/32/5 17/29/5
f 10/33/3 19/34/3 28/34/3 25/33/3
f 10/33/5 9/15/5 20/16/5 19/34/5
f 5/10/4 6/9/4 21/35/4 20/36/4
f 20/36/4 21/35/4 22/37/4 19/38/4
f 19/38/4 22/37/4 23/39/4 18/40/4
f 18/40/4 23/39/4 24/12/4 17/11/4
f 3/4/2 4/3/2 13/41/2 12/42/2
f 12/42/2 13/41/2 14/43/2 11/44/2
f 11/44/2 14/43/2 15/45/2 10/46/2
f 10/46/2 15/45/2 16/6/2 9/5/2
f 26/31/5 25/33/5 28/34/5 27/32/5
f 19/38/4 18/40/4 27/40/4 28/38/4
f 18/32/1 11/31/1 26/31/1 27/32/1
f 11/44/2 10/46/2 25/46/2 26/44/2
o 立方体.001
v -0.170032 5.712797 -1.000000
v -0.170032 -9.226789 -1.000000
v -0.170032 5.712797 1.000000
v -0.170032 -9.226789 1.000000
v -2.170032 5.712797 -1.000000
v -2.170032 -9.226789 -1.000000
v -2.170032 5.712797 1.000000
v -2.170032 -9.226789 1.000000
vn -1.0000 -0.0000 -0.0000
vn -0.0000 -0.0000 -1.0000
vn 1.0000 -0.0000 -0.0000
vn -0.0000 -0.0000 1.0000
vn -0.0000 -1.0000 -0.0000
vn -0.0000 1.0000 -0.0000
vt 0.375000 0.000000
vt 0.625000 0.000000
vt 0.625000 0.250000
vt 0.375000 0.250000
vt 0.625000 0.500000
vt 0.375000 0.500000
vt 0.625000 0.750000
vt 0.375000 0.750000
vt 0.625000 1.000000
vt 0.375000 1.000000
vt 0.125000 0.500000
vt 0.125000 0.750000
vt 0.875000 0.500000
vt 0.875000 0.750000
s 0
f 29/47/7 30/48/7 32/49/7 31/50/7
f 31/50/8 32/49/8 36/51/8 35/52/8
f 35/52/9 36/51/9 34/53/9 33/54/9
f 33/54/10 34/53/10 30/55/10 29/56/10
f 31/57/11 35/52/11 33/54/11 29/58/11
f 36/51/12 32/59/12 30/60/12 34/53/12
o 立方体.002
v -4.926311 4.100134 -1.000000
v -4.926311 6.100134 -1.000000
v -4.926311 4.100134 1.000000
v -4.926311 6.100134 1.000000
v -15.531439 4.100134 -1.000000
v -15.531439 6.100134 -1.000000
v -15.531439 4.100134 1.000000
v -15.531439 6.100134 1.000000
v -13.410413 4.100134 1.000000
v -11.289388 4.100134 1.000000
v -9.168362 4.100134 1.000000
v -7.047337 4.100134 1.000000
v -7.047337 6.100134 1.000000
v -9.168362 6.100134 1.000000
v -11.289387 6.100134 1.000000
v -13.410413 6.100134 1.000000
v -7.047337 4.100134 -1.000000
v -9.168362 4.100134 -1.000000
v -11.289387 4.100134 -1.000000
v -13.410413 4.100134 -1.000000
v -13.410413 6.100134 -1.000000
v -11.289388 6.100134 -1.000000
v -9.168362 6.100134 -1.000000
v -7.047337 6.100134 -1.000000
v -11.289388 -8.835068 1.000000
v -9.168362 -8.835068 1.000000
v -9.168362 -8.835068 -1.000000
v -11.289387 -8.835068 -1.000000
vn 1.0000 -0.0000 -0.0000
vn -0.0000 -0.0000 1.0000
vn -1.0000 -0.0000 -0.0000
vn -0.0000 -0.0000 -1.0000
vn -0.0000 -1.0000 -0.0000
vn -0.0000 1.0000 -0.0000
vt 0.375000 0.000000
vt 0.625000 0.000000
vt 0.625000 0.250000
vt 0.375000 0.250000
vt 0.375000 0.450000
vt 0.625000 0.450000
vt 0.625000 0.500000
vt 0.375000 0.500000
vt 0.625000 0.750000
vt 0.375000 0.750000
vt 0.375000 0.950000
vt 0.625000 0.950000
vt 0.625000 1.000000
vt 0.375000 1.000000
vt 0.325000 0.500000
vt 0.325000 0.750000
vt 0.825000 0.500000
vt 0.875000 0.500000
vt 0.875000 0.750000
vt 0.825000 0.750000
vt 0.675000 0.500000
vt 0.675000 0.750000
vt 0.725000 0.500000
vt 0.725000 0.750000
vt 0.775000 0.500000
vt 0.775000 0.750000
vt 0.125000 0.500000
vt 0.175000 0.500000
vt 0.175000 0.750000
vt 0.125000 0.750000
vt 0.225000 0.500000
vt 0.225000 0.750000
vt 0.275000 0.500000
vt 0.275000 0.750000
vt 0.625000 0.800000
vt 0.375000 0.800000
vt 0.625000 0.850000
vt 0.375000 0.850000
vt 0.625000 0.900000
vt 0.375000 0.900000
vt 0.625000 0.300000
vt 0.375000 0.300000
vt 0.625000 0.350000
vt 0.375000 0.350000
vt 0.625000 0.400000
vt 0.375000 0.400000
s 0
f 37/61/13 38/62/13 40/63/13 39/64/13
f 45/65/14 52/66/14 44/67/14 43/68/14
f 43/68/15 44/67/15 42/69/15 41/70/15
f 53/71/16 60/72/16 38/73/16 37/74/16
f 45/75/17 43/68/17 41/70/17 56/76/17
f 49/77/18 40/78/18 38/79/18 60/80/18
f 44/67/18 52/81/18 57/82/18 42/69/18
f 52/81/18 51/83/18 58/84/18 57/82/18
f 51/83/18 50/85/18 59/86/18 58/84/18
f 50/85/18 49/77/18 60/80/18 59/86/18
f 39/87/17 48/88/17 53/89/17 37/90/17
f 48/88/17 47/91/17 54/92/17 53/89/17
f 46/93/15 55/94/15 64/94/15 61/93/15
f 46/93/17 45/75/17 56/76/17 55/94/17
f 41/70/16 42/69/16 57/95/16 56/96/16
f 56/96/16 57/95/16 58/97/16 55/98/16
f 55/98/16 58/97/16 59/99/16 54/100/16
f 54/100/16 59/99/16 60/72/16 53/71/16
f 39/64/14 40/63/14 49/101/14 48/102/14
f 48/102/14 49/101/14 50/103/14 47/104/14
f 47/104/14 50/103/14 51/105/14 46/106/14
f 46/106/14 51/105/14 52/66/14 45/65/14
f 62/91/17 61/93/17 64/94/17 63/92/17
f 55/98/16 54/100/16 63/100/16 64/98/16
f 54/92/13 47/91/13 62/91/13 63/92/13
f 47/104/14 46/106/14 61/106/14 62/104/14
o 立方体.003
v -19.551279 5.712797 -1.000000
v -19.551279 -9.226789 -1.000000
v -19.551279 5.712797 1.000000
v -19.551279 -9.226789 1.000000
v -21.551279 5.712797 -1.000000
v -21.551279 -9.226789 -1.000000
v -21.551279 5.712797 1.000000
v -21.551279 -9.226789 1.000000
v -19.551279 4.052843 -1.000000
v -19.551279 2.392889 -1.000000
v -19.551279 0.732935 -1.000000
v -19.551279 -0.927019 -1.000000
v -19.551279 -2.586973 -1.000000
v -19.551279 -4.246927 -1.000000
v -19.551279 -5.906881 -1.000000
v -19.551279 -7.566834 -1.000000
v -19.551279 -7.566834 1.000000
v -19.551279 -5.906880 1.000000
v -19.551279 -4.246926 1.000000
v -19.551279 -2.586972 1.000000
v -19.551279 -0.927018 1.000000
v -19.551279 0.732936 1.000000
v -19.551279 2.392889 1.000000
v -19.551279 4.052843 1.000000
v -21.551279 -7.566834 1.000000
v -21.551279 -5.906880 1.000000
v -21.551279 -4.246926 1.000000
v -21.551279 -2.586972 1.000000
v -21.551279 -0.927018 1.000000
v -21.551279 0.732936 1.000000
v -21.551279 2.392889 1.000000
v -21.551279 4.052843 1.000000
v -21.551279 -7.566834 -1.000000
v -21.551279 -5.906880 -1.000000
v -21.551279 -4.246926 -1.000000
v -21.551279 -2.586972 -1.000000
v -21.551279 -0.927018 -1.000000
v -21.551279 0.732936 -1.000000
v -21.551279 2.392889 -1.000000
v -21.551279 4.052843 -1.000000
v -27.122690 -9.226789 1.000000
v -27.122690 -9.226789 -1.000000
v -27.122690 -7.566834 1.000000
v -27.122690 -7.566834 -1.000000
v -28.732904 -9.226789 1.000000
v -28.732904 -9.226789 -1.000000
v -28.732904 -7.566834 1.000000
v -28.732904 -7.566834 -1.000000
vn -1.0000 -0.0000 -0.0000
vn -0.0000 -0.0000 -1.0000
vn -0.0000 -0.0000 1.0000
vn -0.0000 -1.0000 -0.0000
vn -0.0000 1.0000 -0.0000
vn 1.0000 -0.0000 -0.0000
vt 0.597222 0.000000
vt 0.625000 0.000000
vt 0.625000 0.250000
vt 0.597222 0.250000
vt 0.625000 0.500000
vt 0.597222 0.500000
vt 0.625000 0.750000
vt 0.597222 0.750000
vt 0.625000 1.000000
vt 0.597222 1.000000
vt 0.125000 0.500000
vt 0.375000 0.500000
vt 0.375000 0.750000
vt 0.125000 0.750000
vt 0.875000 0.500000
vt 0.875000 0.750000
vt 0.402778 0.750000
vt 0.402778 1.000000
vt 0.375000 1.000000
vt 0.430556 0.750000
vt 0.430556 1.000000
vt 0.458333 0.750000
vt 0.458333 1.000000
vt 0.486111 0.750000
vt 0.486111 1.000000
vt 0.513889 0.750000
vt 0.513889 1.000000
vt 0.541667 0.750000
vt 0.541667 1.000000
vt 0.569444 0.750000
vt 0.569444 1.000000
vt 0.402778 0.500000
vt 0.430556 0.500000
vt 0.458333 0.500000
vt 0.486111 0.500000
vt 0.513889 0.500000
vt 0.541667 0.500000
vt 0.569444 0.500000
vt 0.375000 0.250000
vt 0.402778 0.250000
vt 0.430556 0.250000
vt 0.458333 0.250000
vt 0.486111 0.250000
vt 0.513889 0.250000
vt 0.541667 0.250000
vt 0.569444 0.250000
vt 0.375000 0.000000
vt 0.402778 0.000000
vt 0.430556 0.000000
vt 0.458333 0.000000
vt 0.486111 0.000000
vt 0.513889 0.000000
vt 0.541667 0.000000
vt 0.569444 0.000000
s 0
f 80/107/19 66/108/19 68/109/19 81/110/19
f 81/110/20 68/109/20 72/111/20 89/112/20
f 70/113/21 97/114/21 108/114/21 106/113/21
f 97/114/21 70/113/21 66/115/21 80/116/21
f 67/117/22 71/118/22 69/119/22 65/120/22
f 72/111/23 68/121/23 66/122/23 70/113/23
f 69/119/21 104/123/21 73/124/21 65/125/21
f 104/123/21 103/126/21 74/127/21 73/124/21
f 103/126/21 102/128/21 75/129/21 74/127/21
f 102/128/21 101/130/21 76/131/21 75/129/21
f 101/130/21 100/132/21 77/133/21 76/131/21
f 100/132/21 99/134/21 78/135/21 77/133/21
f 99/134/21 98/136/21 79/137/21 78/135/21
f 98/136/21 97/114/21 80/116/21 79/137/21
f 71/118/24 96/138/24 104/123/24 69/119/24
f 96/138/24 95/139/24 103/126/24 104/123/24
f 95/139/24 94/140/24 102/128/24 103/126/24
f 94/140/24 93/141/24 101/130/24 102/128/24
f 93/141/24 92/142/24 100/132/24 101/130/24
f 92/142/24 91/143/24 99/134/24 100/132/24
f 91/143/24 90/144/24 98/136/24 99/134/24
f 90/144/24 89/112/24 97/114/24 98/136/24
f 67/145/20 88/146/20 96/138/20 71/118/20
f 88/146/20 87/147/20 95/139/20 96/138/20
f 87/147/20 86/148/20 94/140/20 95/139/20
f 86/148/20 85/149/20 93/141/20 94/140/20
f 85/149/20 84/150/20 92/142/20 93/141/20
f 84/150/20 83/151/20 91/143/20 92/142/20
f 83/151/20 82/152/20 90/144/20 91/143/20
f 82/152/20 81/110/20 89/112/20 90/144/20
f 65/153/19 73/154/19 88/146/19 67/145/19
f 73/154/19 74/155/19 87/147/19 88/146/19
f 74/155/19 75/156/19 86/148/19 87/147/19
f 75/156/19 76/157/19 85/149/19 86/148/19
f 76/157/19 77/158/19 84/150/19 85/149/19
f 77/158/19 78/159/19 83/151/19 84/150/19
f 78/159/19 79/160/19 82/152/19 83/151/19
f 79/160/19 80/107/19 81/110/19 82/152/19
f 106/113/21 108/114/21 112/114/21 110/113/21
f 72/111/23 70/113/23 106/113/23 105/111/23
f 89/112/20 72/111/20 105/111/20 107/112/20
f 97/114/22 89/112/22 107/112/22 108/114/22
f 111/112/24 109/111/24 110/113/24 112/114/24
f 105/111/23 106/113/23 110/113/23 109/111/23
f 108/114/22 107/112/22 111/112/22 112/114/22
f 107/112/20 105/111/20 109/111/20 111/112/20
o 立方体.004
v -32.511021 5.712797 -1.000000
v -32.511021 -9.226789 -1.000000
v -32.511021 5.712797 1.000000
v -32.511021 -9.226789 1.000000
v -34.511021 5.712797 -1.000000
v -34.511021 -9.226789 -1.000000
v -34.511021 5.712797 1.000000
v -34.511021 -9.226789 1.000000
v -32.511021 4.052843 -1.000000
v -32.511021 2.392889 -1.000000
v -32.511021 0.732935 -1.000000
v -32.511021 -0.927019 -1.000000
v -32.511021 -2.586973 -1.000000
v -32.511021 -4.246927 -1.000000
v -32.511021 -5.906881 -1.000000
v -32.511021 -7.566834 -1.000000
v -32.511021 -7.566834 1.000000
v -32.511021 -5.906880 1.000000
v -32.511021 -4.246926 1.000000
v -32.511021 -2.586972 1.000000
v -32.511021 -0.927018 1.000000
v -32.511021 0.732936 1.000000
v -32.511021 2.392889 1.000000
v -32.511021 4.052843 1.000000
v -34.511021 -7.566834 1.000000
v -34.511021 -5.906880 1.000000
v -34.511021 -4.246926 1.000000
v -34.511021 -2.586972 1.000000
v -34.511021 -0.927018 1.000000
v -34.511021 0.732936 1.000000
v -34.511021 2.392889 1.000000
v -34.511021 4.052843 1.000000
v -34.511021 -7.566834 -1.000000
v -34.511021 -5.906880 -1.000000
v -34.511021 -4.246926 -1.000000
v -34.511021 -2.586972 -1.000000
v -34.511021 -0.927018 -1.000000
v -34.511021 0.732936 -1.000000
v -34.511021 2.392889 -1.000000
v -34.511021 4.052843 -1.000000
v -40.082432 -9.226789 1.000000
v -40.082432 -9.226789 -1.000000
v -40.082432 -7.566834 1.000000
v -40.082432 -7.566834 -1.000000
v -41.692646 -9.226789 1.000000
v -41.692646 -9.226789 -1.000000
v -41.692646 -7.566834 1.000000
v -41.692646 -7.566834 -1.000000
v -41.581516 -2.586972 1.000000
v -41.581516 -0.927018 1.000000
v -41.581516 -2.586972 -1.000000
v -41.581516 -0.927018 -1.000000
v -41.132172 4.052843 1.000000
v -41.132172 5.712797 1.000000
v -41.132172 5.712797 -1.000000
v -41.132172 4.052843 -1.000000
v -41.612995 4.079850 1.083792
v -41.612995 5.739804 1.083792
v -41.612995 5.739804 -0.916208
v -41.612995 4.079850 -0.916208
vn -1.0000 -0.0000 -0.0000
vn -0.0000 -0.0000 -1.0000
vn -0.0000 -0.0000 1.0000
vn -0.0000 -1.0000 -0.0000
vn -0.0000 1.0000 -0.0000
vn 1.0000 -0.0000 -0.0000
vn 0.1717 -0.0000 0.9852
vn -0.1717 -0.0000 -0.9852
vn 0.0561 0.9984 -0.0000
vn -0.0561 -0.9984 -0.0000
vt 0.597222 0.000000
vt 0.625000 0.000000
vt 0.625000 0.250000
vt 0.597222 0.250000
vt 0.625000 0.500000
vt 0.597222 0.500000
vt 0.625000 0.750000
vt 0.597222 0.750000
vt 0.625000 1.000000
vt 0.597222 1.000000
vt 0.125000 0.500000
vt 0.375000 0.500000
vt 0.375000 0.750000
vt 0.125000 0.750000
vt 0.875000 0.500000
vt 0.875000 0.750000
vt 0.402778 0.750000
vt 0.402778 1.000000
vt 0.375000 1.000000
vt 0.430556 0.750000
vt 0.430556 1.000000
vt 0.458333 0.750000
vt 0.458333 1.000000
vt 0.486111 0.750000
vt 0.486111 1.000000
vt 0.513889 0.750000
vt 0.513889 1.000000
vt 0.541667 0.750000
vt 0.541667 1.000000
vt 0.569444 0.750000
vt 0.569444 1.000000
vt 0.402778 0.500000
vt 0.430556 0.500000
vt 0.458333 0.500000
vt 0.486111 0.500000
vt 0.513889 0.500000
vt 0.541667 0.500000
vt 0.569444 0.500000
vt 0.375000 0.250000
vt 0.402778 0.250000
vt 0.430556 0.250000
vt 0.458333 0.250000
vt 0.486111 0.250000
vt 0.513889 0.250000
vt 0.541667 0.250000
vt 0.569444 0.250000
vt 0.375000 0.000000
vt 0.402778 0.000000
vt 0.430556 0.000000
vt 0.458333 0.000000
vt 0.486111 0.000000
vt 0.513889 0.000000
vt 0.541667 0.000000
vt 0.569444 0.000000
s 0
f 128/161/25 114/162/25 116/163/25 129/164/25
f 129/164/26 116/163/26 120/165/26 137/166/26
f 118/167/27 145/168/27 156/168/27 154/167/27
f 145/168/27 118/167/27 114/169/27 128/170/27
f 115/171/28 119/172/28 117/173/28 113/174/28
f 120/165/29 116/175/29 114/176/29 118/167/29
f 117/173/27 152/177/27 121/178/27 113/179/27
f 152/177/27 151/180/27 122/181/27 121/178/27
f 151/180/27 150/182/27 123/183/27 122/181/27
f 150/182/27 149/184/27 124/185/27 123/183/27
f 149/184/27 148/186/27 125/187/27 124/185/27
f 148/186/27 147/188/27 126/189/27 125/187/27
f 147/188/27 146/190/27 127/191/27 126/189/27
f 146/190/27 145/168/27 128/170/27 127/191/27
f 144/192/29 152/177/29 168/177/29 165/192/29
f 144/192/30 143/193/30 151/180/30 152/177/30
f 143/193/30 142/194/30 150/182/30 151/180/30
f 142/194/30 141/195/30 149/184/30 150/182/30
f 140/196/29 148/186/29 163/186/29 161/196/29
f 140/196/30 139/197/30 147/188/30 148/186/30
f 139/197/30 138/198/30 146/190/30 147/188/30
f 138/198/30 137/166/30 145/168/30 146/190/30
f 115/199/26 136/200/26 144/192/26 119/172/26
f 136/200/26 135/201/26 143/193/26 144/192/26
f 135/201/26 134/202/26 142/194/26 143/193/26
f 134/202/26 133/203/26 141/195/26 142/194/26
f 133/203/26 132/204/26 140/196/26 141/195/26
f 132/204/26 131/205/26 139/197/26 140/196/26
f 131/205/26 130/206/26 138/198/26 139/197/26
f 130/206/26 129/164/26 137/166/26 138/198/26
f 113/207/25 121/208/25 136/200/25 115/199/25
f 121/208/25 122/209/25 135/201/25 136/200/25
f 122/209/25 123/210/25 134/202/25 135/201/25
f 123/210/25 124/211/25 133/203/25 134/202/25
f 124/211/25 125/212/25 132/204/25 133/203/25
f 125/212/25 126/213/25 131/205/25 132/204/25
f 126/213/25 127/214/25 130/206/25 131/205/25
f 127/214/25 128/161/25 129/164/25 130/206/25
f 154/167/27 156/168/27 160/168/27 158/167/27
f 120/165/29 118/167/29 154/167/29 153/165/29
f 137/166/26 120/165/26 153/165/26 155/166/26
f 145/168/28 137/166/28 155/166/28 156/168/28
f 159/166/30 157/165/30 158/167/30 160/168/30
f 153/165/29 154/167/29 158/167/29 157/165/29
f 156/168/28 155/166/28 159/166/28 160/168/28
f 155/166/26 153/165/26 157/165/26 159/166/26
f 162/195/30 161/196/30 163/186/30 164/184/30
f 141/195/26 140/196/26 161/196/26 162/195/26
f 149/184/28 141/195/28 162/195/28 164/184/28
f 148/186/27 149/184/27 164/184/27 163/186/27
f 168/177/31 167/173/31 171/173/31 172/177/31
f 119/172/26 144/192/26 165/192/26 166/172/26
f 152/177/27 117/173/27 167/173/27 168/177/27
f 117/173/28 119/172/28 166/172/28 167/173/28
f 170/172/30 169/192/30 172/177/30 171/173/30
f 166/172/32 165/192/32 169/192/32 170/172/32
f 165/192/33 168/177/33 172/177/33 169/192/33
f 167/173/34 166/172/34 170/172/34 171/173/34
